<?xml version="1.0" encoding="UTF-8" standalone="no" ?>
<svg xmlns="http://www.w3.org/2000/svg" xmlns:xlink="http://www.w3.org/1999/xlink" version="1.1" viewBox="0 0 505.394 505.395" xml:space="preserve">
	<g transform="matrix(1 0 0 1 252.697 252.6975)" id="rT4bWUBb2p2NDHE44hpn4">
		<g>
			<g transform="matrix(1 0 0 1 -0.0014999723 17.7605)" id="9v-dqyAYVB84cJ5ibJXdQ">
				<path style="fill: #2a5fac; stroke: none; stroke-width: 1; stroke-dasharray: none; stroke-linecap: butt; stroke-dashoffset: 0; stroke-linejoin: miter; stroke-miterlimit: 4; fill-rule: nonzero; opacity: 1;"  transform=" translate(-252.6955000277, -270.458)" d="M 267.681 349.456 L 261.21099999999996 347.36400000000003 L 261.21099999999996 105.862 C 261.21099999999996 100.637 256.441 96.41399999999999 250.55099999999996 96.41399999999999 C 244.66099999999994 96.41399999999999 239.89999999999995 100.63099999999999 239.89999999999995 105.862 L 239.89999999999995 348.346 L 233.97499999999994 350.82800000000003 C 215.75499999999994 358.41700000000003 203.98399999999992 376.06600000000003 203.98399999999992 395.785 C 203.98399999999992 422.65500000000003 225.8329999999999 444.502 252.69399999999993 444.502 C 279.5559999999999 444.502 301.4069999999999 422.661 301.4069999999999 395.785 C 301.408 374.601 287.849 355.982 267.681 349.456 z" stroke-linecap="round"/>
			</g>
			<g transform="matrix(1 0 0 1 0 -0.0005)" id="NdG_4zoj_U1xYywBm-jPN">
				<path style="stroke: none; stroke-width: 1; stroke-dasharray: none; stroke-linecap: butt; stroke-dashoffset: 0; stroke-linejoin: miter; stroke-miterlimit: 4; fill: rgb(0,0,0); fill-rule: nonzero; opacity: 1;"  transform=" translate(-252.697, -252.697)" d="M 307.496 300.846 L 307.496 57.846000000000004 C 307.496 25.948 281.547 0 249.65 0 C 217.75300000000001 0 191.804 25.948 191.804 57.846 L 191.804 304.62899999999996 C 161.668 324.70199999999994 143.094 358.61799999999994 143.094 395.78499999999997 C 143.094 456.22799999999995 192.265 505.39399999999995 252.694 505.39399999999995 C 313.128 505.39399999999995 362.29999999999995 456.22799999999995 362.29999999999995 395.78499999999997 C 362.294 355.935 340.986 320.115 307.496 300.846 z M 252.694 474.953 C 208.981 474.953 173.53699999999998 439.50699999999995 173.53699999999998 395.78499999999997 C 173.53699999999998 362.87399999999997 193.65099999999998 334.64399999999995 222.24999999999997 322.71599999999995 L 222.24999999999997 57.846 C 222.24999999999997 42.726 234.51199999999997 30.446999999999996 249.64899999999997 30.446999999999996 C 264.78299999999996 30.446999999999996 277.048 42.727 277.048 57.846 L 277.048 156.795 L 268.673 156.795 L 268.673 168.98299999999998 L 277.048 168.98299999999998 L 277.048 200.19199999999998 L 268.673 200.19199999999998 L 268.673 212.36799999999997 L 277.048 212.36799999999997 L 277.048 246.61499999999995 L 268.673 246.61499999999995 L 268.673 258.79099999999994 L 277.048 258.79099999999994 L 277.048 320.48799999999994 C 308.836 330.77799999999996 331.847 360.57399999999996 331.847 395.78499999999997 C 331.848 439.501 296.414 474.953 252.694 474.953 z" stroke-linecap="round"/>
			</g>
		</g>
	</g>
	<g transform="matrix(2.9666666667 0 0 21.5492177193 251.5672901965 173.3200358553)" id="8PHPK503k1ViDM09hSWUG">
		<path style="stroke: rgb(235,238,172); stroke-width: 0; stroke-dasharray: none; stroke-linecap: butt; stroke-dashoffset: 0; stroke-linejoin: miter; stroke-miterlimit: 4; fill: rgb(255,255,255); fill-rule: nonzero; opacity: 1;"  transform=" translate(0, 0)" d="M -4.5945 -4.5945 L 4.5945 -4.5945 L 4.5945 4.5945 L -4.5945 4.5945 z" stroke-linecap="round"/>
	</g>
</svg>
